<svg xmlns="http://www.w3.org/2000/svg" xmlns:xlink="http://www.w3.org/1999/xlink" width="500" zoomAndPan="magnify" viewBox="0 0 375 374.999991" height="500" preserveAspectRatio="xMidYMid meet" version="1.0"><defs><g/><clipPath id="316e2ae42b"><path d="M 120 83 L 257 83 L 257 214 L 120 214 Z M 120 83 " clip-rule="nonzero"/></clipPath><clipPath id="383c2d9d7e"><path d="M 281.921875 130.898438 L 210.855469 242.132812 L 93.300781 167.027344 L 164.367188 55.792969 Z M 281.921875 130.898438 " clip-rule="nonzero"/></clipPath><clipPath id="2c8c94e3e5"><path d="M 281.921875 130.898438 L 210.855469 242.132812 L 93.300781 167.027344 L 164.367188 55.792969 Z M 281.921875 130.898438 " clip-rule="nonzero"/></clipPath><clipPath id="76e70df82b"><path d="M 139.71875 108.042969 L 244.71875 108.042969 L 244.71875 214.542969 L 139.71875 214.542969 Z M 139.71875 108.042969 " clip-rule="nonzero"/></clipPath></defs><g clip-path="url(#316e2ae42b)"><g clip-path="url(#383c2d9d7e)"><g clip-path="url(#2c8c94e3e5)"><path fill="#ff1616" d="M 150.320312 94.148438 C 150.6875 94.011719 151.097656 93.804688 151.46875 93.667969 Z M 132.960938 105.246094 C 133.40625 104.6875 133.855469 104.132812 134.304688 103.578125 C 134.753906 103.019531 135.203125 102.464844 135.714844 101.953125 C 136.59375 101.015625 137.472656 100.078125 138.351562 99.140625 C 138.824219 98.695312 139.296875 98.246094 139.835938 97.84375 L 140.113281 97.550781 L 140.265625 97.460938 L 140.308594 97.394531 L 140.695312 97.082031 L 141.429688 96.519531 C 141.964844 96.113281 142.503906 95.710938 143.042969 95.304688 C 143.539062 94.96875 144.101562 94.671875 144.664062 94.375 C 145.832031 93.71875 147.132812 93.144531 148.324219 92.59375 L 149.214844 92.226562 C 150.511719 91.652344 151.878906 91.121094 153.246094 90.589844 C 154.613281 90.058594 155.917969 89.769531 157.199219 89.371094 C 158.480469 88.972656 159.980469 88.527344 161.371094 88.105469 C 162.761719 87.683594 164.175781 87.367188 165.628906 86.988281 C 167.085938 86.609375 168.460938 86.359375 169.914062 85.980469 C 171.371094 85.601562 172.917969 85.371094 174.398438 85.101562 L 174.289062 85.125 C 175.007812 85.023438 175.726562 84.921875 176.554688 84.792969 C 177.382812 84.667969 177.953125 84.65625 178.671875 84.554688 L 183.03125 84.15625 C 184.492188 84.0625 185.929688 83.855469 187.394531 83.761719 C 188.855469 83.664062 190.382812 83.613281 191.800781 83.582031 C 194.75 83.5 197.703125 83.699219 200.660156 84.1875 C 202.125 84.375 203.574219 84.738281 205.023438 85.101562 C 205.679688 85.242188 206.40625 85.421875 207.019531 85.628906 C 207.636719 85.835938 208.425781 86.058594 209.152344 86.242188 C 209.875 86.421875 210.582031 86.78125 211.285156 87.136719 C 211.992188 87.496094 212.5625 87.765625 213.269531 88.125 C 214.613281 88.796875 215.851562 89.492188 217.152344 90.230469 C 218.453125 90.96875 219.558594 91.578125 220.792969 92.277344 C 222.03125 92.972656 223.222656 93.734375 224.351562 94.453125 C 225.476562 95.175781 226.675781 96.222656 227.9375 97.027344 C 229.195312 97.832031 230.304688 98.726562 231.414062 99.621094 C 233.652344 101.523438 235.871094 103.3125 238.070312 105.277344 C 239.136719 106.242188 240.160156 107.269531 241.074219 108.320312 C 241.988281 109.375 242.859375 110.492188 243.691406 111.679688 C 244.519531 112.863281 245.261719 113.898438 246.066406 114.976562 C 246.871094 116.050781 247.683594 117.414062 248.472656 118.664062 C 249.257812 119.917969 249.914062 121.082031 250.589844 122.359375 C 251.203125 123.59375 251.707031 124.851562 252.167969 126.175781 C 252.695312 127.542969 253.046875 128.890625 253.464844 130.28125 C 253.886719 131.671875 254.128906 133.042969 254.546875 134.4375 C 254.964844 135.828125 255.316406 137.175781 255.628906 138.589844 C 255.894531 140.070312 255.988281 141.535156 256.011719 142.953125 C 255.996094 144.441406 255.914062 145.886719 255.722656 147.355469 C 255.53125 148.824219 255.382812 150.226562 255.191406 151.695312 C 255 153.164062 254.742188 154.59375 254.484375 156.019531 C 254.226562 157.445312 254.007812 158.804688 253.75 160.234375 C 253.492188 161.660156 253.234375 163.085938 252.933594 164.578125 C 252.632812 166.070312 252.402344 167.609375 252.144531 169.035156 C 251.886719 170.460938 251.625 171.886719 251.300781 173.273438 C 250.976562 174.65625 250.703125 176.257812 250.335938 177.707031 C 249.96875 179.160156 249.492188 180.632812 248.886719 182.023438 C 248.636719 182.707031 248.320312 183.347656 247.9375 183.945312 C 247.578125 184.652344 247.195312 185.25 246.773438 185.917969 C 245.964844 187.179688 245.089844 188.402344 244.21875 189.621094 C 243.34375 190.84375 242.382812 191.910156 241.308594 193.003906 C 240.238281 194.097656 239.207031 195.125 238.113281 196.109375 C 237.015625 197.09375 235.851562 198.039062 234.667969 198.871094 C 232.320312 200.648438 229.878906 202.273438 227.285156 203.703125 C 224.691406 205.132812 221.980469 206.304688 219.179688 207.324219 C 217.75 207.816406 216.359375 208.238281 214.96875 208.660156 C 213.578125 209.082031 212.078125 209.527344 210.578125 209.976562 C 209.082031 210.421875 207.800781 210.820312 206.410156 211.242188 C 205.085938 211.707031 203.738281 212.0625 202.367188 212.308594 C 201.539062 212.4375 200.820312 212.539062 199.992188 212.664062 C 199.164062 212.792969 198.636719 212.738281 197.917969 212.839844 C 196.457031 212.933594 194.996094 213.03125 193.535156 213.125 C 190.675781 213.359375 187.730469 213.441406 184.910156 213.328125 C 183.402344 213.203125 182 213.058594 180.492188 212.9375 C 178.980469 212.816406 177.621094 212.601562 176.222656 212.457031 C 173.421875 212.164062 170.597656 211.765625 167.941406 211.097656 C 167.28125 210.957031 166.601562 210.710938 165.984375 210.503906 C 165.371094 210.296875 164.621094 210.007812 163.984375 209.691406 C 162.664062 209.128906 161.339844 208.566406 160.0625 207.9375 C 157.441406 206.636719 154.925781 205.308594 152.34375 203.941406 C 149.765625 202.574219 147.09375 201.054688 144.683594 199.421875 C 143.488281 198.65625 142.382812 197.761719 141.273438 196.867188 C 140.097656 195.929688 138.964844 194.925781 137.898438 193.964844 C 136.832031 193 135.742188 191.929688 134.761719 190.835938 C 133.78125 189.742188 132.800781 188.644531 131.929688 187.527344 C 131.054688 186.40625 130.117188 185.246094 129.328125 183.996094 C 128.542969 182.742188 127.710938 181.558594 127.035156 180.28125 C 125.566406 177.753906 124.296875 175.066406 123.308594 172.375 C 122.820312 170.945312 122.402344 169.554688 122.027344 168.097656 C 121.71875 166.679688 121.40625 165.265625 121.273438 163.871094 C 121.171875 163.148438 121.136719 162.472656 121.039062 161.753906 L 120.867188 159.679688 C 120.734375 158.28125 120.597656 156.886719 120.507812 155.421875 C 120.414062 153.960938 120.324219 152.496094 120.273438 150.96875 C 120.222656 149.4375 120.238281 147.949219 120.296875 146.394531 C 120.359375 144.84375 120.464844 143.507812 120.65625 142.039062 C 120.847656 140.570312 120.996094 139.164062 121.210938 137.804688 C 121.425781 136.445312 121.746094 134.777344 122.113281 133.328125 C 122.4375 131.941406 122.71875 130.625 123.152344 129.214844 L 123.335938 128.492188 L 123.398438 128.25 C 123.582031 127.523438 123.761719 126.796875 123.945312 126.074219 C 124.59375 123.304688 125.683594 120.722656 126.574219 118.015625 C 126.925781 117.023438 127.28125 116.03125 127.632812 115.042969 C 128.011719 114.160156 128.386719 113.277344 128.875 112.371094 C 129.589844 110.957031 130.414062 109.515625 131.265625 108.1875 C 131.550781 107.152344 132.253906 106.199219 132.960938 105.246094 Z M 132.960938 105.246094 " fill-opacity="1" fill-rule="nonzero"/></g></g></g><g clip-path="url(#76e70df82b)"><path fill="#ffffff" d="M 184.421875 128.410156 C 185.65625 129.714844 186.886719 131.019531 188.117188 132.320312 C 188.277344 132.488281 188.441406 132.667969 188.484375 132.890625 C 188.527344 133.097656 188.460938 133.308594 188.460938 133.519531 C 188.46875 133.996094 188.824219 134.382812 189.15625 134.726562 C 189.570312 135.152344 189.984375 135.574219 190.398438 136 C 190.664062 136.273438 190.933594 136.558594 191.042969 136.921875 C 191.183594 137.410156 190.996094 137.9375 191.058594 138.445312 C 191.097656 138.796875 191.257812 139.121094 191.410156 139.441406 C 192.289062 141.304688 192.953125 143.269531 193.378906 145.28125 C 193.480469 145.761719 193.558594 146.296875 193.300781 146.714844 C 193.070312 147.089844 192.632812 147.265625 192.28125 147.527344 C 191.929688 147.792969 191.652344 148.292969 191.898438 148.65625 C 192.007812 148.816406 192.195312 148.90625 192.375 148.980469 C 194.285156 149.785156 196.371094 150.058594 198.425781 150.324219 C 198.789062 150.371094 199.160156 150.417969 199.523438 150.378906 C 200.164062 150.304688 200.765625 149.941406 201.132812 149.410156 C 202.636719 147.226562 204.785156 145.550781 207.382812 145.019531 C 210.644531 144.355469 214.085938 145.550781 217.328125 144.796875 C 218.695312 143.113281 220.566406 141.652344 222.605469 140.914062 C 224.027344 140.394531 225.625 140.15625 227.054688 140.65625 C 227.402344 140.777344 227.746094 140.945312 228.113281 140.960938 C 228.550781 140.984375 228.96875 140.796875 229.367188 140.613281 C 229.816406 140.402344 230.269531 140.195312 230.722656 139.988281 C 230.140625 137.183594 229.53125 134.136719 229.625 131.273438 C 229.652344 130.550781 229.71875 129.824219 229.6875 129.097656 C 229.667969 128.695312 229.621094 128.296875 229.566406 127.902344 C 229.320312 126.214844 228.894531 124.558594 228.292969 122.964844 C 227.628906 121.203125 226.757812 119.53125 225.886719 117.863281 C 225.683594 117.476562 225.007812 117.410156 224.570312 117.433594 C 224.136719 117.457031 223.710938 117.582031 223.277344 117.617188 C 221.570312 117.769531 220.015625 116.601562 218.308594 116.457031 C 217.546875 116.390625 216.789062 116.53125 216.035156 116.667969 C 215.871094 116.695312 215.695312 116.726562 215.539062 116.664062 C 215.367188 116.59375 215.253906 116.429688 215.160156 116.269531 C 214.964844 115.945312 214.796875 115.605469 214.660156 115.253906 C 214.570312 115.027344 214.496094 114.753906 214.640625 114.558594 C 214.710938 114.460938 214.824219 114.40625 214.898438 114.3125 C 215.085938 114.0625 214.914062 113.707031 214.964844 113.398438 C 214.996094 113.210938 215.105469 113.050781 215.207031 112.894531 C 215.8125 111.984375 216.292969 110.988281 216.632812 109.949219 C 216.777344 109.511719 216.902344 109.054688 217.203125 108.707031 C 217.671875 108.167969 218.453125 108.027344 219.164062 108.042969 C 220.636719 108.070312 222.097656 108.625 223.21875 109.582031 C 223.519531 109.839844 223.792969 110.121094 224.09375 110.382812 C 224.351562 110.605469 224.625 110.8125 224.894531 111.019531 C 225.542969 111.503906 226.1875 111.992188 226.832031 112.480469 C 227.324219 112.851562 227.816406 113.222656 228.308594 113.59375 C 228.933594 114.0625 229.558594 114.535156 230.238281 114.914062 C 231.449219 115.59375 231.695312 117.0625 232.394531 118.257812 C 232.820312 118.988281 233.34375 119.488281 233.835938 120.175781 C 234.753906 121.449219 235.667969 122.722656 236.585938 123.996094 C 237.191406 124.839844 237.800781 125.683594 238.375 126.550781 C 241.46875 131.21875 243.585938 136.523438 244.558594 142.03125 C 244.675781 142.699219 244.339844 143.355469 243.960938 143.917969 C 243.582031 144.484375 243.066406 144.941406 242.566406 145.40625 C 240.023438 147.773438 237.777344 150.441406 235.246094 152.820312 C 232.714844 155.199219 229.820312 157.316406 226.480469 158.269531 C 223.492188 159.121094 220.144531 159.054688 217.578125 160.804688 C 214.207031 163.09375 215.363281 168.578125 213.847656 172.363281 C 213.179688 174.03125 212.25 175.597656 211.71875 177.3125 C 210.679688 180.679688 209.960938 184.167969 208.492188 187.367188 C 207.949219 188.546875 207.328125 189.695312 206.980469 190.945312 C 206.296875 193.398438 206.730469 196.011719 207.347656 198.480469 C 207.964844 200.949219 208.773438 203.40625 208.835938 205.949219 C 208.90625 208.90625 210.464844 211.679688 211.277344 214.527344 L 172.667969 214.527344 C 173.335938 212.472656 174.070312 210.625 174.953125 208.65625 C 175.214844 208.074219 175.484375 207.492188 175.613281 206.871094 C 175.730469 206.285156 175.722656 205.683594 175.761719 205.085938 C 175.964844 201.964844 177.539062 198.964844 177.214844 195.851562 C 177.09375 194.703125 177.285156 193.566406 176.902344 192.476562 C 176.523438 191.386719 175.945312 190.375 175.371094 189.375 C 173.933594 186.875 172.476562 184.367188 170.628906 182.152344 C 170.136719 182.804688 169.566406 183.464844 169.074219 184.117188 C 168.578125 184.769531 168.082031 185.429688 167.558594 186.0625 C 165.449219 188.613281 162.847656 190.785156 159.863281 192.226562 C 158.148438 193.058594 156.308594 193.648438 154.679688 194.640625 C 153.90625 195.113281 153.183594 195.679688 152.347656 196.03125 C 151.402344 196.429688 150.359375 196.535156 149.335938 196.566406 C 147.726562 196.617188 146.03125 196.460938 144.691406 195.570312 C 144.160156 195.222656 143.933594 194.585938 143.648438 194.019531 C 143.277344 193.28125 142.90625 192.542969 142.53125 191.800781 C 142.1875 191.109375 141.835938 190.417969 141.546875 189.703125 C 140.695312 187.582031 140.375 185.292969 140.15625 183.019531 C 139.976562 181.171875 139.859375 179.324219 139.808594 177.472656 C 139.738281 175.121094 140.734375 172.746094 140.921875 170.40625 C 141.074219 168.519531 140.777344 166.570312 141.351562 164.769531 C 141.804688 163.339844 142.355469 161.8125 143.117188 160.519531 C 144.714844 157.804688 146.3125 155.09375 147.910156 152.378906 C 148.023438 152.183594 148.140625 151.984375 148.316406 151.839844 C 148.679688 151.539062 149.214844 151.535156 149.667969 151.683594 C 150.117188 151.832031 150.511719 152.109375 150.929688 152.332031 C 151.972656 152.878906 153.183594 153.078125 154.191406 153.695312 C 154.351562 153.792969 154.511719 153.90625 154.601562 154.074219 C 154.699219 154.25 154.703125 154.460938 154.757812 154.65625 C 154.871094 155.070312 155.199219 155.386719 155.453125 155.734375 C 155.707031 156.085938 155.894531 156.558594 155.691406 156.9375 C 155.609375 157.09375 155.46875 157.210938 155.332031 157.320312 C 154.703125 157.820312 153.992188 158.238281 153.511719 158.878906 C 153.253906 159.21875 153.074219 159.613281 152.828125 159.960938 C 151.554688 161.773438 148.789062 162.164062 147.738281 164.117188 C 147.339844 164.859375 147.253906 165.726562 147.242188 166.566406 C 147.210938 168.285156 147.453125 170.007812 147.949219 171.652344 C 148.328125 172.894531 149.140625 173.847656 149.816406 174.953125 C 150.144531 175.488281 150.476562 176.015625 150.863281 176.507812 C 151.160156 176.886719 151.484375 177.242188 151.746094 177.644531 C 152.074219 178.152344 152.292969 178.722656 152.503906 179.289062 C 152.902344 178.527344 153.117188 177.65625 153.382812 176.839844 C 153.777344 175.628906 154.574219 174.578125 155.515625 173.710938 C 156.453125 172.847656 157.535156 172.152344 158.613281 171.46875 C 158.5625 169.777344 159.375 168.195312 160.128906 166.683594 C 160.601562 165.738281 161.121094 164.8125 161.75 163.964844 C 164.476562 160.269531 169.34375 158.28125 173.878906 159.015625 C 174.25 159.074219 174.6875 158.886719 174.953125 158.625 C 175.976562 157.617188 176.996094 156.609375 178.015625 155.601562 C 178.351562 155.273438 178.6875 154.941406 178.925781 154.535156 C 179.433594 153.679688 179.4375 152.597656 179.15625 151.644531 C 178.875 150.6875 178.335938 149.832031 177.792969 148.996094 C 177.433594 148.445312 177.058594 147.886719 176.539062 147.488281 C 176.195312 147.222656 175.796875 147.039062 175.425781 146.816406 C 173.984375 145.960938 172.878906 144.535156 171.296875 143.972656 C 169.148438 143.210938 167.496094 141.105469 166.707031 138.964844 C 166.390625 138.117188 166.265625 137.195312 166.34375 136.289062 C 166.394531 135.660156 166.542969 135.042969 166.691406 134.429688 C 166.898438 133.566406 167.109375 132.703125 167.316406 131.839844 C 167.394531 131.511719 167.476562 131.179688 167.625 130.871094 C 167.929688 130.246094 168.492188 129.789062 169.039062 129.355469 C 170.238281 128.402344 171.460938 127.457031 172.800781 126.71875 C 174.144531 125.976562 175.628906 125.445312 177.160156 125.371094 C 177.910156 125.335938 178.664062 125.414062 179.40625 125.515625 C 180.355469 125.652344 181.308594 125.835938 182.175781 126.242188 C 183.042969 126.644531 183.765625 127.714844 184.421875 128.410156 Z M 184.421875 128.410156 " fill-opacity="1" fill-rule="nonzero"/></g><g fill="#ffffff" fill-opacity="1"><g transform="translate(127.051714, 252.165437)"><g><path d="M 21.390625 -20.296875 L 16.6875 -24.234375 L 6.09375 -24.234375 L 1.390625 -20.296875 L 1.390625 -13.671875 L 5.5 -10.28125 L 13.8125 -8.90625 L 14.46875 -8.3125 L 14.46875 -6.6875 L 13.609375 -5.953125 L 8.546875 -5.953125 L 7.859375 -8.484375 L 1.390625 -8.484375 L 1.390625 -4.078125 L 6.296875 0 L 16.71875 0 L 21.671875 -4.078125 L 21.671875 -11.015625 L 17.625 -14.15625 L 9.28125 -15.546875 L 8.515625 -16.140625 L 8.515625 -17.5625 L 9.421875 -18.25 L 14.234375 -18.25 L 14.921875 -15.71875 L 21.390625 -15.71875 Z M 21.390625 -20.296875 "/></g></g></g><g fill="#ffffff" fill-opacity="1"><g transform="translate(150.141335, 252.165437)"><g><path d="M 23.234375 -5.953125 L 18.5625 -24.234375 L 4.578125 -24.234375 L 4.578125 -18.9375 L 6.828125 -18.25 L 3.296875 -5.953125 L 0.625 -5.265625 L 0.625 0 L 11.015625 0 L 11.015625 -5.265625 L 9.3125 -5.953125 L 9.90625 -8.109375 L 15.125 -8.109375 L 15.75 -5.953125 L 13.921875 -5.265625 L 13.921875 0 L 26.21875 0 L 26.21875 -5.265625 Z M 12.4375 -17.6875 L 13.984375 -12.25 L 10.90625 -12.25 Z M 12.4375 -17.6875 "/></g></g></g><g fill="#ffffff" fill-opacity="1"><g transform="translate(176.969603, 252.165437)"><g><path d="M 14.265625 -18.9375 L 14.265625 -24.234375 L 1.53125 -24.234375 L 1.53125 -18.9375 L 4.15625 -18.25 L 4.15625 -5.953125 L 1.53125 -5.265625 L 1.53125 0 L 22.890625 0 L 22.890625 -9.25 L 17.765625 -9.25 L 17.0625 -5.953125 L 11.328125 -5.953125 L 11.328125 -18.25 Z M 14.265625 -18.9375 "/></g></g></g><g fill="#ffffff" fill-opacity="1"><g transform="translate(200.440015, 252.165437)"><g><path d="M 22.890625 -15.71875 L 22.890625 -24.234375 L 1.53125 -24.234375 L 1.53125 -18.9375 L 4.15625 -18.25 L 4.15625 -5.953125 L 1.53125 -5.265625 L 1.53125 0 L 22.921875 0 L 22.921875 -8.484375 L 17.796875 -8.484375 L 17.109375 -5.953125 L 11.28125 -5.953125 L 11.28125 -10.1875 L 17.109375 -10.1875 L 17.109375 -14.328125 L 11.28125 -14.328125 L 11.28125 -18.25 L 17.109375 -18.25 L 17.796875 -15.71875 Z M 22.890625 -15.71875 "/></g></g></g><g fill="#ffffff" fill-opacity="1"><g transform="translate(224.845088, 252.165437)"><g><path d="M 21.390625 -20.296875 L 16.6875 -24.234375 L 6.09375 -24.234375 L 1.390625 -20.296875 L 1.390625 -13.671875 L 5.5 -10.28125 L 13.8125 -8.90625 L 14.46875 -8.3125 L 14.46875 -6.6875 L 13.609375 -5.953125 L 8.546875 -5.953125 L 7.859375 -8.484375 L 1.390625 -8.484375 L 1.390625 -4.078125 L 6.296875 0 L 16.71875 0 L 21.671875 -4.078125 L 21.671875 -11.015625 L 17.625 -14.15625 L 9.28125 -15.546875 L 8.515625 -16.140625 L 8.515625 -17.5625 L 9.421875 -18.25 L 14.234375 -18.25 L 14.921875 -15.71875 L 21.390625 -15.71875 Z M 21.390625 -20.296875 "/></g></g></g><g fill="#ff1616" fill-opacity="1"><g transform="translate(118.359175, 272.330901)"><g><path d="M 0.332031 0 L 1.308594 0 L 2.390625 -2.644531 L 7.859375 -2.644531 L 8.957031 0 L 9.917969 0 L 5.5625 -10.519531 L 4.6875 -10.519531 Z M 2.75 -3.488281 L 5.125 -9.273438 L 7.515625 -3.488281 Z M 2.75 -3.488281 "/></g></g></g><g fill="#ff1616" fill-opacity="1"><g transform="translate(136.676887, 272.330901)"><g><path d="M 6.296875 0.195312 C 8.777344 0.195312 10.804688 -1.261719 11.453125 -3.53125 L 10.492188 -3.53125 C 9.90625 -1.789062 8.28125 -0.722656 6.3125 -0.722656 C 3.742188 -0.722656 1.894531 -2.570312 1.894531 -5.261719 C 1.894531 -7.949219 3.742188 -9.800781 6.3125 -9.800781 C 8.238281 -9.800781 9.800781 -8.777344 10.402344 -7.109375 L 11.363281 -7.109375 C 10.671875 -9.320312 8.703125 -10.714844 6.296875 -10.714844 C 3.203125 -10.714844 0.960938 -8.460938 0.960938 -5.261719 C 0.960938 -2.058594 3.203125 0.195312 6.296875 0.195312 Z M 6.296875 0.195312 "/></g></g></g><g fill="#ff1616" fill-opacity="1"><g transform="translate(157.082849, 272.330901)"><g><path d="M 0.332031 0 L 1.308594 0 L 2.390625 -2.644531 L 7.859375 -2.644531 L 8.957031 0 L 9.917969 0 L 5.5625 -10.519531 L 4.6875 -10.519531 Z M 2.75 -3.488281 L 5.125 -9.273438 L 7.515625 -3.488281 Z M 2.75 -3.488281 "/></g></g></g><g fill="#ff1616" fill-opacity="1"><g transform="translate(175.400564, 272.330901)"><g><path d="M 1.699219 0 L 5.019531 0 C 8.371094 0 10.492188 -2.089844 10.492188 -5.261719 C 10.492188 -8.433594 8.371094 -10.519531 5.019531 -10.519531 L 1.699219 -10.519531 Z M 2.613281 -0.871094 L 2.613281 -9.648438 L 4.988281 -9.648438 C 7.800781 -9.648438 9.558594 -7.9375 9.558594 -5.261719 C 9.558594 -2.585938 7.816406 -0.871094 5.019531 -0.871094 Z M 2.613281 -0.871094 "/></g></g></g><g fill="#ff1616" fill-opacity="1"><g transform="translate(194.905118, 272.330901)"><g><path d="M 1.699219 0 L 8.054688 0 L 8.054688 -0.855469 L 2.613281 -0.855469 L 2.613281 -4.945312 L 7.5 -4.945312 L 7.5 -5.785156 L 2.613281 -5.785156 L 2.613281 -9.664062 L 7.890625 -9.664062 L 7.890625 -10.519531 L 1.699219 -10.519531 Z M 1.699219 0 "/></g></g></g><g fill="#ff1616" fill-opacity="1"><g transform="translate(212.111091, 272.330901)"><g><path d="M 1.699219 0 L 2.613281 0 L 2.613281 -8.835938 L 6.554688 -2.929688 L 7.304688 -2.929688 L 11.242188 -8.835938 L 11.242188 0 L 12.144531 0 L 12.144531 -10.519531 L 11.300781 -10.519531 L 6.929688 -3.9375 L 2.554688 -10.519531 L 1.699219 -10.519531 Z M 1.699219 0 "/></g></g></g><g fill="#ff1616" fill-opacity="1"><g transform="translate(234.00437, 272.330901)"><g><path d="M 1.699219 0 L 2.613281 0 L 2.613281 -10.519531 L 1.699219 -10.519531 Z M 1.699219 0 "/></g></g></g><g fill="#ff1616" fill-opacity="1"><g transform="translate(246.372811, 272.330901)"><g><path d="M 0.332031 0 L 1.308594 0 L 2.390625 -2.644531 L 7.859375 -2.644531 L 8.957031 0 L 9.917969 0 L 5.5625 -10.519531 L 4.6875 -10.519531 Z M 2.75 -3.488281 L 5.125 -9.273438 L 7.515625 -3.488281 Z M 2.75 -3.488281 "/></g></g></g></svg>